<?xml version="1.0" encoding="UTF-8" standalone="no"?>
<svg
   xmlns:dc="http://purl.org/dc/elements/1.1/"
   xmlns:cc="http://creativecommons.org/ns#"
   xmlns:rdf="http://www.w3.org/1999/02/22-rdf-syntax-ns#"
   xmlns:svg="http://www.w3.org/2000/svg"
   xmlns="http://www.w3.org/2000/svg"
   xmlns:sodipodi="http://sodipodi.sourceforge.net/DTD/sodipodi-0.dtd"
   xmlns:inkscape="http://www.inkscape.org/namespaces/inkscape"
   width="586.73114mm"
   height="586.73163mm"
   viewBox="0 0 586.73114 586.73163"
   version="1.1"
   id="svg8"
   inkscape:version="1.0.2 (e86c870879, 2021-01-15, custom)"
   sodipodi:docname="logo.inkscape.svg">
  <defs
     id="defs2" />
  <sodipodi:namedview
     id="base"
     pagecolor="#ffffff"
     bordercolor="#666666"
     borderopacity="1.0"
     inkscape:pageopacity="0.0"
     inkscape:pageshadow="2"
     inkscape:zoom="0.28"
     inkscape:cx="1081.1113"
     inkscape:cy="1010.8224"
     inkscape:document-units="mm"
     inkscape:current-layer="layer1"
     inkscape:document-rotation="0"
     showgrid="false"
     showguides="true"
     inkscape:guide-bbox="true"
     inkscape:window-width="1920"
     inkscape:window-height="1025"
     inkscape:window-x="0"
     inkscape:window-y="0"
     inkscape:window-maximized="1"
     fit-margin-top="0"
     fit-margin-left="0"
     fit-margin-right="0"
     fit-margin-bottom="0"
     showborder="true" />
  <metadata
     id="metadata5">
    <rdf:RDF>
      <cc:Work
         rdf:about="">
        <dc:format>image/svg+xml</dc:format>
        <dc:type
           rdf:resource="http://purl.org/dc/dcmitype/StillImage" />
        <dc:title></dc:title>
      </cc:Work>
    </rdf:RDF>
  </metadata>
  <g
     inkscape:label="Layer 1"
     id="layer1"
     transform="translate(180.2107,189.49437)">
    <path
       id="path833"
       style="fill:#000000;stroke-width:0"
       inkscape:label="logo"
       d="M 427.62891,-716.19922 A 1108.7839,1108.7839 0 0 0 -681.11133,392.58398 1108.7839,1108.7839 0 0 0 427.67188,1501.3691 1108.7839,1108.7839 0 0 0 1536.4551,392.58398 1108.7839,1108.7839 0 0 0 427.67188,-716.19922 a 1108.7839,1108.7839 0 0 0 -0.043,0 z M 55.226562,20.140625 H 800.11523 c 34.14076,0 62.07422,27.933482 62.07422,62.074219 V 702.95508 c 0,34.1407 -27.93346,62.07422 -62.07422,62.07422 H 55.226562 c -34.140737,0 -62.0742182,-27.93352 -62.0742182,-62.07422 V 82.214844 c 0,-34.140737 27.9334812,-62.074219 62.0742182,-62.074219 z M 117.30078,206.36328 v 62.07422 h 248.29688 v -62.07422 z m 564.875,76.9707 -131.59766,131.59766 -44.07226,-44.07226 -44.07227,44.07226 87.52344,87.52344 176.29102,-175.04883 z m -564.875,78.2129 v 62.07421 h 248.29688 v -62.07421 z m 0,155.18554 v 62.07422 h 248.29688 v -62.07422 z"
       transform="scale(0.26458333)" />
  </g>
</svg>
